<?xml version="1.0" encoding="UTF-8"?>
<svg version="1.1" xmlns="http://www.w3.org/2000/svg" width="500" height="500">
<path d="M0 0 C4.84890458 4.38766731 8.12315508 9.82879524 8.80639648 16.42749023 C8.90516526 18.60517841 8.92363985 20.76941382 8.9140625 22.94921875 C8.93017578 23.68269531 8.94628906 24.41617187 8.96289062 25.171875 C8.96915445 32.17483565 6.56384781 36.57324109 1.9765625 41.82421875 C-1.48191524 46.11273115 -2.2991037 48.98585977 -2.3984375 54.44921875 C8.69143803 58.58756828 21.36381906 56.21394003 32.95092773 55.22241211 C35.42714335 55.01059983 37.90389846 54.80640912 40.38085938 54.60351562 C41.98180722 54.4704893 43.58272005 54.33704071 45.18359375 54.203125 C45.91085159 54.14266495 46.63810944 54.0822049 47.3874054 54.01991272 C50.94406538 53.7143394 54.46729472 53.33649895 58.00268555 52.83959961 C61.6015625 52.44921875 61.6015625 52.44921875 63.6015625 53.44921875 C68.14572501 54.09723371 72.72116263 54.5016929 77.2890625 54.94921875 C77.95962677 55.01547455 78.63019104 55.08173035 79.32107544 55.1499939 C88.38219241 56.03711988 97.44479656 56.80380457 106.5390625 57.26171875 C107.45969482 57.31457031 108.38032715 57.36742187 109.32885742 57.421875 C114.54861618 57.64040149 118.68058634 57.25117407 123.6015625 55.44921875 C125.00245793 54.27970185 125.00245793 54.27970185 124.6640625 51.01171875 C123.99251691 45.81656748 120.92843622 42.72397913 117.51171875 38.94140625 C112.29526075 32.13547536 112.78724925 23.62628095 113.6015625 15.44921875 C115.88945026 7.72759755 120.83232723 1.36227121 127.69921875 -2.83203125 C136.51910394 -7.18753011 144.5520628 -7.16774152 153.90625 -4.48828125 C161.51882263 -1.8404299 166.16602505 3.46868148 169.64453125 10.58203125 C172.69613138 18.57636398 172.70945627 27.10907707 169.73046875 35.125 C167.89171252 38.9106746 165.54019552 42.33407678 163.125 45.7734375 C161.45062293 48.71433056 160.96375156 51.10631161 160.6015625 54.44921875 C167.00874891 57.9440477 172.41495742 57.76561017 179.6015625 57.44921875 C181.13541076 57.3943659 182.66926538 57.33969069 184.203125 57.28515625 C193.92568032 56.90264407 203.61063778 56.24215822 213.3046875 55.41015625 C214.39861816 55.31758545 215.49254883 55.22501465 216.61962891 55.12963867 C219.28039936 54.90427287 221.94103623 54.67744604 224.6015625 54.44921875 C224.70146751 97.31979587 224.77378681 140.1892141 224.19584274 183.05690384 C224.16399457 185.4543325 224.13406053 187.85177891 224.10452271 190.24923706 C224.0579383 193.98318199 224.0058074 197.71700544 223.94868469 201.45080376 C223.91873705 203.46016881 223.89296828 205.46959477 223.86730957 207.47901917 C223.83739929 209.2451078 223.83739929 209.2451078 223.80688477 211.046875 C223.78356834 212.58613647 223.78356834 212.58613647 223.75978088 214.15649414 C223.6015625 216.44921875 223.6015625 216.44921875 222.6015625 217.44921875 C220.87091485 217.54656174 219.13625219 217.57293352 217.40286922 217.57226658 C215.70172731 217.57525315 215.70172731 217.57525315 213.96621889 217.57830006 C212.07375086 217.5739308 212.07375086 217.5739308 210.14305115 217.56947327 C208.80162777 217.56990885 207.46020447 217.57078352 206.11878163 217.57206243 C202.41551872 217.57430991 198.71228447 217.57028268 195.00902522 217.56528437 C191.02195713 217.56098365 187.03489079 217.56242602 183.04782104 217.56318665 C176.13426261 217.56371212 169.22071358 217.56056286 162.30715752 217.55494881 C152.31119877 217.546837 142.31524458 217.54421892 132.3192829 217.54296082 C116.10323354 217.54076979 99.88718921 217.53410834 83.67114258 217.5246582 C67.91463241 217.51548539 52.15812362 217.50841538 36.40161133 217.50415039 C35.42119084 217.50388239 34.44077036 217.5036144 33.43064016 217.50333828 C25.76361229 217.50125897 18.0965844 217.49930201 10.42955649 217.49738371 C-27.17977945 217.48794249 -64.78910283 217.46782597 -102.3984375 217.44921875 C-102.3984375 163.32921875 -102.3984375 109.20921875 -102.3984375 53.44921875 C-93.88722844 54.01663269 -85.38682045 54.59686206 -76.88330078 55.24926758 C-57.05653324 57.92807884 -57.05653324 57.92807884 -38.3984375 53.44921875 C-38.85127403 47.91764635 -40.22152742 44.6360129 -43.3359375 40.07421875 C-49.04236166 31.26858341 -50.5156077 23.82028438 -48.3984375 13.44921875 C-45.54940864 5.26883885 -40.40767146 -0.57394236 -32.72265625 -4.51171875 C-21.42848588 -9.56087727 -9.78493164 -7.43922885 0 0 Z " fill="#3BB54A" transform="translate(167.3984375,236.55078125)"/>
<path d="M0 0 C8.04392338 0.49871891 15.98252817 1.13723218 23.9375 2.4375 C36.82354521 4.48927973 49.74967415 6.10780214 62.71447754 7.57394409 C75.78990992 9.06068778 88.81038224 10.78488414 101.822052 12.7505188 C115.42297316 14.80437261 129.04879838 16.62676803 142.69042969 18.38842773 C143.46837891 18.48915085 144.24632812 18.58987396 145.04785156 18.69364929 C146.49659673 18.880925 147.94548025 19.06713501 149.39453125 19.25202942 C153.27908362 19.75305003 157.14081736 20.33111491 161 21 C161.18460772 27.7470329 160.4657912 34.20778353 159.57421875 40.890625 C159.42596146 42.03045837 159.27770416 43.17029175 159.12495422 44.34466553 C158.81039305 46.75548194 158.49338087 49.16597966 158.17407227 51.57617188 C157.69466077 55.19593317 157.22260223 58.81659011 156.75195312 62.4375 C155.28874398 73.63501692 153.78877843 84.82373788 152.05485535 95.98297119 C150.15786374 108.24912291 148.66039296 120.57549098 147.08984375 132.88671875 C146.73665708 135.64522446 146.38294238 138.40366245 146.02929688 141.16210938 C145.47941743 145.45222808 144.93026406 149.74243628 144.38354492 154.03295898 C143.93591666 157.54533457 143.48596721 161.05740594 143.03445625 164.56928444 C142.78187676 166.53887088 142.53177716 168.50877483 142.28172302 170.47868347 C142.12808792 171.67125259 141.97445282 172.86382172 141.81616211 174.0925293 C141.68229599 175.13982712 141.54842987 176.18712494 141.4105072 177.26615906 C141.06468762 179.56920206 140.61747289 181.7572671 140 184 C124.77522466 184.31902905 109.71470523 183.48298268 94.54003906 182.25439453 C92.06556119 182.07657343 89.58744279 181.94594354 87.10839844 181.85107422 C85.22556152 181.76817139 85.22556152 181.76817139 83.3046875 181.68359375 C82.16757324 181.6467749 81.03045898 181.60995605 79.85888672 181.57202148 C77 181 77 181 75.10205078 179.20336914 C73.37583994 175.75209469 73.95622892 172.57455849 75 169 C77.01646982 165.78858511 79.05977484 163.953644 82.0625 161.625 C85.44599991 158.60144689 86.5094625 156.24803187 88 152 C88.4125 151.071875 88.825 150.14375 89.25 149.1875 C91.04959152 141.53923605 88.74955562 134.15922028 86 127 C85.34 127 84.68 127 84 127 C83.505 126.278125 83.01 125.55625 82.5 124.8125 C78.19966561 119.97462381 73.21201805 117.49143483 66.80859375 116.51171875 C59.19052962 116.19692271 53.21652367 117.49217723 47 122 C41.65325252 127.0799659 38.05983903 132.59405164 37 140 C36.97384121 147.38985913 39.07987348 154.58644174 42.6875 161 C44.42204104 164.96466523 44.65902485 168.72061783 44 173 C42 175 42 175 38.62109375 175.2578125 C33.00039325 175.10873571 27.56150928 173.97537905 22.0625 172.875 C20.37713135 172.54375122 20.37713135 172.54375122 18.65771484 172.20581055 C10.44406031 170.56113463 2.27501982 168.74701283 -5.875 166.8125 C-6.93195068 166.56290527 -7.98890137 166.31331055 -9.07788086 166.05615234 C-10.55140015 165.6977124 -10.55140015 165.6977124 -12.0546875 165.33203125 C-12.91562012 165.12296143 -13.77655273 164.9138916 -14.66357422 164.69848633 C-16.94585096 164.01618813 -18.90982353 163.13321003 -21 162 C-20.39695593 159.41640003 -19.7927245 156.83308946 -19.1875 154.25 C-19.00445312 153.4672168 -18.82140625 152.68443359 -18.6328125 151.87792969 C-17.64042192 147.65332993 -16.6041612 143.44703262 -15.5 139.25 C-14.09153697 133.63949258 -12.93266734 127.98630535 -11.8125 122.3125 C-11.63332031 121.43303711 -11.45414062 120.55357422 -11.26953125 119.64746094 C-9.12963572 109.05207499 -9.12963572 109.05207499 -12 99 C-17.32170494 98.70437633 -17.32170494 98.70437633 -22 101 C-22.99 101 -23.98 101 -25 101 C-25 101.66 -25 102.32 -25 103 C-30.050897 106.02410394 -34.02089959 106.5456502 -39.75 106.5 C-40.5455127 106.49645508 -41.34102539 106.49291016 -42.16064453 106.48925781 C-50.10666878 106.26560875 -55.54011601 103.88323665 -61.625 98.8125 C-63 97 -63 97 -63 95 C-63.66 95 -64.32 95 -65 95 C-69.70359106 84.95838003 -71.45274147 77.2083894 -67.90625 66.35546875 C-65.30840516 59.60331168 -60.47606755 54.40088447 -54.12109375 50.9921875 C-46.13035534 47.66674889 -37.15175098 46.85371015 -29 50 C-25.80341695 51.76289962 -22.90087374 53.78903444 -20 56 C-19.37351562 56.47308594 -18.74703125 56.94617188 -18.1015625 57.43359375 C-16.68065873 58.55764203 -15.33128298 59.7711234 -14 61 C-14 61.66 -14 62.32 -14 63 C-10.62563814 63.33380814 -10.62563814 63.33380814 -7 63 C-4.23986246 60.18790693 -3.48344904 57.64572896 -2.875 53.8125 C-2.72804688 52.93207031 -2.58109375 52.05164063 -2.4296875 51.14453125 C-1.44643971 43.94894514 -0.83405775 36.85196454 -0.68359375 29.58984375 C-0.6524221 28.31047691 -0.6524221 28.31047691 -0.62062073 27.00526428 C-0.55592801 24.31608089 -0.496619 21.6268111 -0.4375 18.9375 C-0.39423816 17.09960091 -0.35062161 15.26171014 -0.30664062 13.42382812 C-0.20033066 8.94930429 -0.09884438 4.47469473 0 0 Z " fill="#0271BC" transform="translate(300,47)"/>
<path d="M0 0 C1.0828125 1.2684375 1.0828125 1.2684375 2.1875 2.5625 C2.88875 3.305 3.59 4.0475 4.3125 4.8125 C9.46726498 12.37282197 10.42330541 20.97153784 8.75390625 29.875 C7.12598896 35.53732101 4.07664716 40.09377778 0.7109375 44.88671875 C-0.96343957 47.82761181 -1.45031094 50.21959286 -1.8125 53.5625 C4.59468641 57.05732895 10.00089492 56.87889142 17.1875 56.5625 C18.72134826 56.50764715 20.25520288 56.45297194 21.7890625 56.3984375 C31.51161782 56.01592532 41.19657528 55.35543947 50.890625 54.5234375 C51.98455566 54.4308667 53.07848633 54.3382959 54.20556641 54.24291992 C56.86633686 54.01755412 59.52697373 53.79072729 62.1875 53.5625 C62.28740501 96.43307712 62.35972431 139.30249535 61.78178024 182.17018509 C61.74993207 184.56761375 61.71999803 186.96506016 61.69046021 189.36251831 C61.6438758 193.09646324 61.5917449 196.83028669 61.53462219 200.56408501 C61.50467455 202.57345006 61.47890578 204.58287602 61.45324707 206.59230042 C61.43330688 207.76969284 61.4133667 208.94708527 61.39282227 210.16015625 C61.37727798 211.18633057 61.3617337 212.21250488 61.34571838 213.26977539 C61.1875 215.5625 61.1875 215.5625 60.1875 216.5625 C57.48117422 216.66327834 54.80036269 216.69864784 52.09350586 216.69189453 C50.81195712 216.69448902 50.81195712 216.69448902 49.50451851 216.69713593 C46.63710782 216.70152455 43.7697553 216.69853235 40.90234375 216.6953125 C38.87886029 216.69632699 36.85537697 216.69766578 34.83189392 216.6993103 C29.38922824 216.70202072 23.94659085 216.69753223 18.50392914 216.69107056 C15.14057836 216.68751646 11.77723182 216.68588549 8.41387939 216.68481445 C-28.33619834 216.67025488 -65.07075218 216.35045205 -101.8125 215.5625 C-103.23315794 209.8122651 -104.15919591 204.28441422 -104.4453125 198.37109375 C-104.48687469 197.62271744 -104.52843689 196.87434113 -104.57125854 196.10328674 C-104.65704263 194.52957949 -104.7392076 192.95567105 -104.81787109 191.3815918 C-104.93603273 189.02921062 -105.06664355 186.67777993 -105.19921875 184.32617188 C-106.67538237 157.15114712 -106.67538237 157.15114712 -104.8125 151.5625 C-101.61013693 150.55772186 -100.10383561 150.45467054 -96.91015625 151.63671875 C-95.90855469 152.16910156 -94.90695313 152.70148438 -93.875 153.25 C-92.30105469 154.08144531 -92.30105469 154.08144531 -90.6953125 154.9296875 C-87.61353412 156.67519341 -84.7219403 158.5482721 -81.8125 160.5625 C-73.89125709 163.2029143 -65.56641314 162.41523295 -58.125 158.8125 C-54.36935083 156.80000058 -52.28065301 154.99256159 -49.8125 151.5625 C-49.1525 151.5625 -48.4925 151.5625 -47.8125 151.5625 C-47.67972656 150.97855469 -47.54695313 150.39460937 -47.41015625 149.79296875 C-46.84921982 147.69953933 -46.11098693 145.85901337 -45.25 143.875 C-42.72709587 137.17625456 -43.09727324 131.01393084 -45.90625 124.47265625 C-46.2053125 123.84230469 -46.504375 123.21195313 -46.8125 122.5625 C-47.0909375 121.94246094 -47.369375 121.32242188 -47.65625 120.68359375 C-50.45102692 115.10608637 -54.54039047 112.2247084 -60.01171875 109.4453125 C-63.74155559 108.26965961 -67.31704429 108.23308367 -71.1875 108.25 C-71.91710937 108.23388672 -72.64671875 108.21777344 -73.3984375 108.20117188 C-78.62078792 108.19650906 -82.12861563 109.26704798 -86.8125 111.5625 C-88.2975 112.0575 -88.2975 112.0575 -89.8125 112.5625 C-89.8125 113.2225 -89.8125 113.8825 -89.8125 114.5625 C-92.2875 115.0575 -92.2875 115.0575 -94.8125 115.5625 C-94.8125 116.2225 -94.8125 116.8825 -94.8125 117.5625 C-98.1125 117.5625 -101.4125 117.5625 -104.8125 117.5625 C-106.96853692 113.25042615 -106.96465759 110.54288426 -106.67578125 105.921875 C-106.6366713 105.17022568 -106.59756134 104.41857635 -106.55726624 103.64414978 C-106.42548459 101.19939843 -106.27617041 98.75612342 -106.125 96.3125 C-106.07748596 95.48513336 -106.02997192 94.65776672 -105.98101807 93.80532837 C-105.1860434 79.96676235 -103.84757385 66.27889772 -101.8125 52.5625 C-102.4725 52.2325 -103.1325 51.9025 -103.8125 51.5625 C-102.53632813 51.74425781 -102.53632813 51.74425781 -101.234375 51.9296875 C-86.36688723 53.98582943 -71.49257455 55.53483209 -56.5 56.3125 C-55.53964844 56.36929932 -54.57929688 56.42609863 -53.58984375 56.48461914 C-48.18854658 56.72826876 -43.89752565 56.45651765 -38.8125 54.5625 C-37.41160457 53.3929831 -37.41160457 53.3929831 -37.75 50.125 C-38.42154559 44.92984873 -41.48562628 41.83726038 -44.90234375 38.0546875 C-50.11880175 31.24875661 -49.62681325 22.7395622 -48.8125 14.5625 C-46.53122963 6.8632125 -41.56755879 0.28441847 -34.57421875 -3.71875 C-22.94054484 -9.19342007 -9.9707202 -8.64129084 0 0 Z " fill="#FCED22" transform="translate(329.8125,237.4375)"/>
<path d="M0 0 C2.04186132 5.36915321 2.86337741 10.72356511 3.69140625 16.375 C3.91666237 17.87728149 3.91666237 17.87728149 4.14646912 19.40991211 C4.46252762 21.52759976 4.77586934 23.64569444 5.08666992 25.76416016 C5.5569864 28.96250527 6.03858452 32.15900233 6.52148438 35.35546875 C10.42796511 61.48948052 10.42796511 61.48948052 10 67 C8.43947114 69.07081903 7.59533133 69.8429494 5.08984375 70.50390625 C-1.01619534 70.67013236 -4.54583409 68.82024491 -9.609375 65.53515625 C-16.9556872 60.81767146 -24.33164996 59.84007741 -33 61 C-35.88560634 62.08634592 -38.42095329 63.3429512 -41.07421875 64.90625 C-43 66 -43 66 -45 66 C-45.27714844 66.57621094 -45.55429688 67.15242188 -45.83984375 67.74609375 C-47.33747789 70.65563886 -49.1030142 73.35213768 -50.87890625 76.09765625 C-54.57929195 82.37670795 -53.88961195 92.04329569 -52.328125 98.98828125 C-51.63981515 101.02399009 -50.83390559 103.01947421 -50 105 C-49.34 105 -48.68 105 -48 105 C-46.9171875 106.36125 -46.9171875 106.36125 -45.8125 107.75 C-42.51424051 111.86552733 -38.74202735 114.11069383 -33.6875 115.75 C-25.00674036 116.55751252 -16.97443383 116.44383881 -9.5625 111.3125 C-9.046875 110.879375 -8.53125 110.44625 -8 110 C-7.34 110 -6.68 110 -6 110 C-6 109.34 -6 108.68 -6 108 C-2.09351703 104.48735864 1.73131838 102.6624508 7 102.6875 C8.33506492 102.7664312 9.66980117 102.86143762 11 103 C12.87941246 106.1940781 13.24866568 108.53448752 13.24291992 112.22070312 C13.24599655 113.26278931 13.24907318 114.30487549 13.25224304 115.37854004 C13.24146477 117.06288147 13.24146477 117.06288147 13.23046875 118.78125 C13.23001053 119.94571655 13.22955231 121.11018311 13.2290802 122.30993652 C13.22605803 124.77792375 13.21817281 127.24590907 13.20581055 129.71386719 C13.18770432 133.45775259 13.18529998 137.20138813 13.18554688 140.9453125 C13.18062531 143.34896044 13.17479423 145.75260672 13.16796875 148.15625 C13.16685593 149.26295044 13.1657431 150.36965088 13.16459656 151.5098877 C13.12151868 158.71650667 12.70236224 165.82783879 12 173 C-36.91550084 183.34750979 -36.91550084 183.34750979 -56 182 C-57 181 -57 181 -57.4375 177.625 C-57.38820857 170.78581369 -52.99973029 165.02559665 -49.34765625 159.5 C-45.99364185 153.27806024 -46.45354312 144.73813355 -48 138 C-49.19488196 135.77980679 -50.49148921 133.72598418 -51.94140625 131.6640625 C-53 130 -53 130 -53 128 C-53.66 128 -54.32 128 -55 128 C-55 127.34 -55 126.68 -55 126 C-55.804375 125.5978125 -55.804375 125.5978125 -56.625 125.1875 C-58.40850856 124.29574572 -60.17703198 123.37391916 -61.9375 122.4375 C-68.39610519 119.40590981 -75.7481154 118.85117949 -82.66015625 120.71875 C-90.53638001 123.66490911 -96.1153386 127.78838813 -100.0234375 135.33984375 C-102.85029532 143.04020445 -102.73623933 151.33852989 -100 159 C-99.0436126 160.69207001 -98.05589069 162.36816893 -97 164 C-97 164.66 -97 165.32 -97 166 C-96.34 166 -95.68 166 -95 166 C-91.1721404 170.19477878 -88.58837091 174.29341767 -88.625 180.0625 C-88.810625 182.0115625 -88.810625 182.0115625 -89 184 C-92.97574419 185.87018335 -96.12601631 186.24840245 -100.50268555 186.24291992 C-101.79720139 186.24599655 -103.09171722 186.24907318 -104.42546082 186.25224304 C-105.82921528 186.24534664 -107.23296797 186.23807977 -108.63671875 186.23046875 C-110.08209695 186.22927587 -111.52747594 186.22882402 -112.97285461 186.2290802 C-115.99472947 186.22751942 -119.01648518 186.21925864 -122.03833008 186.20581055 C-125.91557086 186.18877558 -129.79268143 186.18499774 -133.66995525 186.18575573 C-136.65101875 186.1854842 -139.63205367 186.18000642 -142.61310768 186.17275429 C-144.04327999 186.16956891 -145.47345554 186.16760052 -146.90363121 186.16686058 C-148.89759865 186.16469826 -150.89155401 186.15516288 -152.88549805 186.14526367 C-154.02069382 186.14145187 -155.15588959 186.13764008 -156.32548523 186.13371277 C-159 186 -159 186 -161 185 C-161.45483398 182.21655273 -161.45483398 182.21655273 -161.74609375 178.43359375 C-161.80164932 177.74604507 -161.8572049 177.0584964 -161.91444397 176.35011292 C-162.09812481 174.04653628 -162.26793297 171.74215552 -162.4375 169.4375 C-162.56437875 167.80007384 -162.69199685 166.16270481 -162.8203125 164.52539062 C-163.08868026 161.07835864 -163.35097239 157.63093496 -163.60888672 154.18310547 C-163.91669671 150.0777291 -164.23819316 145.9736295 -164.5670166 141.86988831 C-166.33478145 119.78596187 -167.71793247 97.68878077 -168.91015625 75.56640625 C-169.53504824 64.12770256 -170.28408099 52.71781074 -171.34547424 41.31018066 C-172.22131541 31.56510049 -172.42678944 21.77645582 -172 12 C-170.23146285 10.23146285 -167.65186559 10.68045939 -165.24609375 10.53515625 C-164.01375 10.45837646 -162.78140625 10.38159668 -161.51171875 10.30249023 C-160.15364685 10.22247631 -158.7955739 10.14248001 -157.4375 10.0625 C-156.04944982 9.97711967 -154.66142924 9.89125687 -153.2734375 9.80493164 C-148.84928987 9.53104139 -144.42467107 9.26527694 -140 9 C-134.86401401 8.69100776 -129.72818473 8.37960418 -124.59255981 8.06466675 C-122.53637924 7.9397108 -120.48000412 7.81844999 -118.42358398 7.69750977 C-117.15973877 7.62072998 -115.89589355 7.5439502 -114.59375 7.46484375 C-112.93375977 7.36610962 -112.93375977 7.36610962 -111.24023438 7.26538086 C-108.96295605 7.07886778 -106.69149949 6.81254728 -104.4296875 6.48852539 C-101.43434268 6.06186786 -98.55125489 5.82243169 -95.53125 5.71875 C-94.54769531 5.68136719 -93.56414062 5.64398438 -92.55078125 5.60546875 C-89.5 5.5 -89.5 5.5 -86.44921875 5.39453125 C-81.21909066 5.19574525 -76.18278851 4.75234027 -71 4 C-66.46222279 3.6281394 -61.91891613 3.34813088 -57.375 3.0625 C-54.6874678 2.88980319 -51.99996726 2.71666774 -49.3125 2.54296875 C-48.62739349 2.49895935 -47.94228699 2.45494995 -47.23641968 2.40960693 C-42.4892735 2.10277436 -37.74454267 1.77061536 -33 1.42578125 C-31.71947754 1.33353271 -30.43895508 1.24128418 -29.11962891 1.14624023 C-26.69458904 0.97058374 -24.26976542 0.79190483 -21.84521484 0.60961914 C-14.54929915 0.08697852 -7.31400328 -0.10441473 0 0 Z " fill="#EC1C25" transform="translate(211,46)"/>
<path d="M0 0 C0.09990501 42.87057712 0.17222431 85.73999535 -0.40571976 128.60768509 C-0.43756793 131.00511375 -0.46750197 133.40256016 -0.49703979 135.80001831 C-0.5436242 139.53396324 -0.5957551 143.26778669 -0.65287781 147.00158501 C-0.68282545 149.01095006 -0.70859422 151.02037602 -0.73425293 153.02980042 C-0.75419312 154.20719284 -0.7741333 155.38458527 -0.79467773 156.59765625 C-0.81022202 157.62383057 -0.8257663 158.65000488 -0.84178162 159.70727539 C-1 162 -1 162 -2 163 C-4.70632578 163.10077834 -7.38713731 163.13614784 -10.09399414 163.12939453 C-11.37554288 163.13198902 -11.37554288 163.13198902 -12.68298149 163.13463593 C-15.55039218 163.13902455 -18.4177447 163.13603235 -21.28515625 163.1328125 C-23.30863971 163.13382699 -25.33212303 163.13516578 -27.35560608 163.1368103 C-32.79827176 163.13952072 -38.24090915 163.13503223 -43.68357086 163.12857056 C-47.04692164 163.12501646 -50.41026818 163.12338549 -53.77362061 163.12231445 C-90.52369834 163.10775488 -127.25825218 162.78795205 -164 162 C-164 161.67 -164 161.34 -164 161 C-150.83390091 160.976333 -137.66780726 160.95881901 -124.50169086 160.94818783 C-118.38140907 160.94307329 -112.26114229 160.93619784 -106.14086914 160.92456055 C-71.7480157 160.86088634 -37.38405445 161.21070383 -3 162 C-3.00138269 161.06874566 -3.00138269 161.06874566 -3.00279331 160.11867809 C-3.02486553 145.02115897 -3.04141986 129.92364479 -3.05181217 114.8261137 C-3.05697123 107.52510181 -3.06400652 100.22410069 -3.07543945 92.9230957 C-3.08539819 86.56048142 -3.09185627 80.19787492 -3.09408849 73.83525306 C-3.09539357 70.46545784 -3.09846667 67.09568492 -3.10573006 63.72589684 C-3.11295384 59.9665836 -3.11399037 56.20731707 -3.11352539 52.44799805 C-3.11712067 51.32734451 -3.12071594 50.20669098 -3.12442017 49.05207825 C-3.1230455 48.02984161 -3.12167084 47.00760498 -3.12025452 45.95439148 C-3.12163721 44.62009614 -3.12163721 44.62009614 -3.12304783 43.25884533 C-3 41 -3 41 -2 38 C-1.84629652 35.27116927 -1.74271735 32.56302858 -1.68359375 29.83203125 C-1.6524221 28.63981209 -1.6524221 28.63981209 -1.62062073 27.42350769 C-1.55527913 24.88659237 -1.49631192 22.34957427 -1.4375 19.8125 C-1.39430014 18.09178628 -1.35068537 16.37108292 -1.30664062 14.65039062 C-1.19961352 10.43369887 -1.09830276 6.2169038 -1 2 C-2.06871338 2.16298584 -3.13742676 2.32597168 -4.23852539 2.49389648 C-6.96548511 2.86080682 -9.45133403 3.12023691 -12.18359375 3.09765625 C-13.23256836 3.09282227 -13.23256836 3.09282227 -14.30273438 3.08789062 C-15.00720703 3.07951172 -15.71167969 3.07113281 -16.4375 3.0625 C-17.16904297 3.05798828 -17.90058594 3.05347656 -18.65429688 3.04882812 C-20.43623419 3.03718148 -22.21812863 3.01925191 -24 3 C-24 2.67 -24 2.34 -24 2 C-20.75033015 1.66339508 -17.50021572 1.33128921 -14.25 1 C-12.86941406 0.85691406 -12.86941406 0.85691406 -11.4609375 0.7109375 C-10.57148438 0.62070312 -9.68203125 0.53046875 -8.765625 0.4375 C-7.94868164 0.35371094 -7.13173828 0.26992188 -6.29003906 0.18359375 C-4.19917501 0.01596798 -2.09757262 0 0 0 Z " fill="#F9F074" transform="translate(392,291)"/>
<path d="M0 0 C1.25668488 0.10200462 1.25668488 0.10200462 2.53875732 0.20606995 C5.20867795 0.42420529 7.87773529 0.65143367 10.546875 0.87890625 C12.35932551 1.02859524 14.17182514 1.17769078 15.984375 1.32617188 C20.42247387 1.69103835 24.85982046 2.06406051 29.296875 2.44140625 C29.296875 2.77140625 29.296875 3.10140625 29.296875 3.44140625 C16.096875 3.44140625 2.896875 3.44140625 -10.703125 3.44140625 C-11.033125 54.26140625 -11.363125 105.08140625 -11.703125 157.44140625 C-11.043125 157.77140625 -10.383125 158.10140625 -9.703125 158.44140625 C-9.078125 160.50390625 -9.078125 160.50390625 -8.703125 162.44140625 C-10.023125 162.44140625 -11.343125 162.44140625 -12.703125 162.44140625 C-12.703125 108.98140625 -12.703125 55.52140625 -12.703125 0.44140625 C-8.25708002 -0.670105 -4.49587592 -0.39260572 0 0 Z " fill="#53B45E" transform="translate(78.703125,290.55859375)"/>
<path d="M0 0 C1.97094808 4.92737019 2.1799928 8.78020872 2 14 C1.01 13.505 1.01 13.505 0 13 C-0.4140625 10.49609375 -0.4140625 10.49609375 -0.625 7.4375 C-0.73714844 5.91962891 -0.73714844 5.91962891 -0.8515625 4.37109375 C-0.90054688 3.58863281 -0.94953125 2.80617187 -1 2 C-6.49954198 2.26112277 -11.99877755 2.52777131 -17.49780273 2.79956055 C-19.36882244 2.89125333 -21.23991701 2.98143156 -23.11108398 3.07006836 C-25.79952746 3.19768209 -28.4876553 3.33072737 -31.17578125 3.46484375 C-32.43217155 3.52272316 -32.43217155 3.52272316 -33.71394348 3.58177185 C-37.01009507 3.75053539 -39.8528825 3.95096083 -43 5 C-62.13157127 8.07271426 -81.69199112 7.19325848 -101 7 C-101 6.67 -101 6.34 -101 6 C-100.33991943 5.97494385 -99.67983887 5.9498877 -98.99975586 5.92407227 C-95.97884631 5.80728248 -92.95818578 5.68493554 -89.9375 5.5625 C-88.37999023 5.50352539 -88.37999023 5.50352539 -86.79101562 5.44335938 C-81.45100103 5.22297782 -76.29133164 4.76818899 -71 4 C-66.46220863 3.62830246 -61.91891704 3.34813094 -57.375 3.0625 C-54.6874678 2.88980319 -51.99996726 2.71666774 -49.3125 2.54296875 C-48.62739349 2.49895935 -47.94228699 2.45494995 -47.23641968 2.40960693 C-42.4892735 2.10277436 -37.74454267 1.77061536 -33 1.42578125 C-31.07921631 1.28740845 -31.07921631 1.28740845 -29.11962891 1.14624023 C-26.69458904 0.97058374 -24.26976542 0.79190483 -21.84521484 0.60961914 C-14.54929915 0.08697852 -7.31400328 -0.10441473 0 0 Z " fill="#DC5358" transform="translate(211,46)"/>
<path d="M0 0 C0.33 0 0.66 0 1 0 C1.51645231 2.53922384 2.01295817 5.08009674 2.5 7.625 C2.64308594 8.31851562 2.78617188 9.01203125 2.93359375 9.7265625 C4.31503989 17.09427524 4 23.11590175 4 31 C38.32 31 72.64 31 108 31 C108 31.33 108 31.66 108 32 C94.32697438 32.0231205 80.65395336 32.04091359 66.98091221 32.05181217 C60.63269424 32.05704164 54.2844896 32.06414044 47.9362793 32.07543945 C41.81551418 32.08626606 35.69476191 32.09227635 29.57398796 32.09487724 C27.23309057 32.0967319 24.89219391 32.10035329 22.55130196 32.10573006 C19.28491798 32.11293748 16.01858785 32.11399107 12.75219727 32.11352539 C11.773965 32.11712067 10.79573273 32.12071594 9.78785706 32.12442017 C8.90299622 32.1230455 8.01813538 32.12167084 7.10646057 32.12025452 C5.9463841 32.12163721 5.9463841 32.12163721 4.76287174 32.12304783 C3 32 3 32 2 31 C1.58944923 28.06021676 1.23910588 25.13892898 0.9375 22.1875 C0.84807129 21.33051514 0.75864258 20.47353027 0.66650391 19.59057617 C0.02084464 13.04605085 -0.23629777 6.57695446 0 0 Z " fill="#FAE93E" transform="translate(225,420)"/>
<path d="M0 0 C1.22589844 0.01353516 1.22589844 0.01353516 2.4765625 0.02734375 C3.41628906 0.04474609 3.41628906 0.04474609 4.375 0.0625 C6.25441246 3.2565781 6.62366568 5.59698752 6.61791992 9.28320312 C6.62099655 10.32528931 6.62407318 11.36737549 6.62724304 12.44104004 C6.62005753 13.56393433 6.61287201 14.68682861 6.60546875 15.84375 C6.60478142 17.59044983 6.60478142 17.59044983 6.6040802 19.37243652 C6.60105803 21.84042375 6.59317281 24.30840907 6.58081055 26.77636719 C6.56270432 30.52025259 6.56029998 34.26388813 6.56054688 38.0078125 C6.55562531 40.41146044 6.54979423 42.81510672 6.54296875 45.21875 C6.54185593 46.32545044 6.5407431 47.43215088 6.53959656 48.5723877 C6.49651868 55.77900667 6.07736224 62.89033879 5.375 70.0625 C2.405 70.5575 2.405 70.5575 -0.625 71.0625 C0.365 70.5675 0.365 70.5675 1.375 70.0625 C1.375 69.4025 1.375 68.7425 1.375 68.0625 C2.035 68.0625 2.695 68.0625 3.375 68.0625 C3.375 61.1325 3.375 54.2025 3.375 47.0625 C4.035 47.0625 4.695 47.0625 5.375 47.0625 C5.375 36.8325 5.375 26.6025 5.375 16.0625 C4.715 16.0625 4.055 16.0625 3.375 16.0625 C3.375 11.1125 3.375 6.1625 3.375 1.0625 C0.735 1.3925 -1.905 1.7225 -4.625 2.0625 C-4.625 2.7225 -4.625 3.3825 -4.625 4.0625 C-6.605 4.3925 -8.585 4.7225 -10.625 5.0625 C-6.95332865 1.26843961 -5.29099668 -0.07558567 0 0 Z " fill="#D94D50" transform="translate(217.625,148.9375)"/>
<path d="M0 0 C8.44940812 0.60352915 16.5654993 1.22452955 24.875 2.5625 C25.76574219 2.70107422 26.65648437 2.83964844 27.57421875 2.98242188 C29.71694897 3.31650347 31.85860519 3.657463 34 4 C34 4.33 34 4.66 34 5 C30.145283 4.88933827 26.29147438 4.75889604 22.4375 4.625 C20.80844727 4.57859375 20.80844727 4.57859375 19.14648438 4.53125 C13.43129863 4.32279338 8.40491634 3.90761753 3 2 C3.02320313 2.92296875 3.04640625 3.8459375 3.0703125 4.796875 C3.22506139 15.9830093 2.27464029 26.89242037 1 38 C0.67 38 0.34 38 0 38 C0 25.46 0 12.92 0 0 Z " fill="#408DC0" transform="translate(300,47)"/>
<path d="M0 0 C0.33 0 0.66 0 1 0 C0.45430722 10.7967759 -0.70827379 21.4375156 -2.15673828 32.1472168 C-2.50463186 34.72177776 -2.84463435 37.29729584 -3.18359375 39.87304688 C-3.40319419 41.52349766 -3.62322974 43.17389062 -3.84375 44.82421875 C-3.94482056 45.58772141 -4.04589111 46.35122406 -4.15002441 47.13786316 C-4.60717221 50.50067218 -5.17537094 53.70148378 -6 57 C-12.6 57 -19.2 57 -26 57 C-26 56.67 -26 56.34 -26 56 C-24.85660156 55.95101562 -23.71320313 55.90203125 -22.53515625 55.8515625 C-21.04424527 55.77654811 -19.55336108 55.70099972 -18.0625 55.625 C-17.30775391 55.5940625 -16.55300781 55.563125 -15.77539062 55.53125 C-13.84492605 55.4273685 -11.92057919 55.22104386 -10 55 C-9.67 54.34 -9.34 53.68 -9 53 C-8.34 53 -7.68 53 -7 53 C-7.01160156 52.24074219 -7.02320313 51.48148438 -7.03515625 50.69921875 C-7.04417969 49.70535156 -7.05320312 48.71148437 -7.0625 47.6875 C-7.07410156 46.70136719 -7.08570313 45.71523437 -7.09765625 44.69921875 C-7 42 -7 42 -6 39 C-5.77439324 36.60745424 -5.59151405 34.21071877 -5.4375 31.8125 C-5.35371094 30.54019531 -5.26992188 29.26789063 -5.18359375 27.95703125 C-5.09271484 26.49330078 -5.09271484 26.49330078 -5 25 C-4.34 25 -3.68 25 -3 25 C-3 20.71 -3 16.42 -3 12 C-2.34 12 -1.68 12 -1 12 C-1.020625 10.948125 -1.04125 9.89625 -1.0625 8.8125 C-1.01103198 5.67295096 -0.73482813 3.03116604 0 0 Z " fill="#478EBD" transform="translate(446,174)"/>
<path d="M0 0 C0.66 1.32 1.32 2.64 2 4 C2.66 4 3.32 4 4 4 C4.721875 4.9075 5.44375 5.815 6.1875 6.75 C9.48575949 10.86552733 13.25797265 13.11069383 18.3125 14.75 C26.99325964 15.55751252 35.02556617 15.44383881 42.4375 10.3125 C42.953125 9.879375 43.46875 9.44625 44 9 C44.66 9 45.32 9 46 9 C46 8.34 46 7.68 46 7 C46.66 7.33 47.32 7.66 48 8 C42.57044289 14.92736597 39.78239186 16.91474078 31 18 C27.28476361 18.20473574 23.59425567 18.19290776 19.875 18.125 C18.91851562 18.11597656 17.96203125 18.10695312 16.9765625 18.09765625 C14.65076475 18.07439827 12.32552706 18.04172213 10 18 C10 16.02 10 14.04 10 12 C9.05125 11.9175 8.1025 11.835 7.125 11.75 C4 11 4 11 2.75 9 C2.5025 8.34 2.255 7.68 2 7 C1.34 6.67 0.68 6.34 0 6 C0 4.02 0 2.04 0 0 Z " fill="#E03841" transform="translate(159,147)"/>
<path d="M0 0 C0.66 0.33 1.32 0.66 2 1 C2 1.66 2 2.32 2 3 C2.66 3 3.32 3 4 3 C7.8278596 7.19477878 10.41162909 11.29341767 10.375 17.0625 C10.189375 19.0115625 10.189375 19.0115625 10 21 C6.01122629 22.87998333 2.85760476 23.2441072 -1.53442383 23.22705078 C-3.48588066 23.22682419 -3.48588066 23.22682419 -5.47676086 23.22659302 C-6.88685257 23.21638124 -8.29694269 23.20594927 -9.70703125 23.1953125 C-11.15719914 23.19157959 -12.60736957 23.18873393 -14.05754089 23.18673706 C-17.86338334 23.17912249 -21.6690717 23.15949289 -25.47485352 23.1373291 C-29.36277177 23.11682363 -33.25071506 23.10772531 -37.13867188 23.09765625 C-44.75918462 23.07624478 -52.37957067 23.04213534 -60 23 C-60 22.67 -60 22.34 -60 22 C-59.37154175 21.98969254 -58.7430835 21.97938507 -58.09558105 21.96876526 C-51.47526188 21.85945909 -44.85504556 21.74498426 -38.23486328 21.62768555 C-35.77362244 21.58472887 -33.31235924 21.54303178 -30.85107422 21.50268555 C-17.54360738 21.28368823 -4.27239491 21.04250211 9 20 C8.690625 18.7625 8.38125 17.525 8.0625 16.25 C7.375 13.5 6.6875 10.75 6 8 C5.34 8 4.68 8 4 8 C4 7.34 4 6.68 4 6 C3.34 6 2.68 6 2 6 C2 5.34 2 4.68 2 4 C1.34 4 0.68 4 0 4 C0 2.68 0 1.36 0 0 Z " fill="#DF6669" transform="translate(112,209)"/>
<path d="M0 0 C0.93423645 3.01031744 1.04449911 3.86650268 0 7 C-1.32 7 -2.64 7 -4 7 C-4.33 8.32 -4.66 9.64 -5 11 C-3.68 10.34 -2.36 9.68 -1 9 C-1.57584432 11.38564077 -2.22227595 13.66682784 -3 16 C1.42682491 17.0390378 5.78934632 17.31592951 10.3125 17.5625 C11.05306641 17.60568359 11.79363281 17.64886719 12.55664062 17.69335938 C14.37091464 17.79870432 16.1854355 17.89978316 18 18 C18 18.66 18 19.32 18 20 C14.22803535 19.94823756 10.45838068 19.85318888 6.6875 19.75 C5.0797168 19.72873047 5.0797168 19.72873047 3.43945312 19.70703125 C2.41142578 19.67480469 1.38339844 19.64257812 0.32421875 19.609375 C-0.62364502 19.58842773 -1.57150879 19.56748047 -2.5480957 19.54589844 C-5 19 -5 19 -6.83666992 17.20800781 C-8.64623715 13.77343782 -8.06272153 10.58757672 -7 7 C-4.88988018 3.76448294 -3.21908826 2.14605884 0 0 Z " fill="#3988BC" transform="translate(382,209)"/>
<path d="M0 0 C5.78898419 -0.20674944 10.42932723 0.40837921 16 2 C16 3.32 16 4.64 16 6 C13.48081639 4.99232656 10.97471838 3.98862327 8.5 2.875 C5.65490179 1.72470798 5.65490179 1.72470798 1 2 C1 16.19 1 30.38 1 45 C0.34 44.67 -0.32 44.34 -1 44 C-1.02467203 38.05517888 -1.04284663 32.1103874 -1.05493164 26.16552734 C-1.05996831 24.14208457 -1.06679789 22.11864544 -1.07543945 20.09521484 C-1.08753412 17.19107157 -1.09323488 14.28697631 -1.09765625 11.3828125 C-1.10281754 10.47443634 -1.10797882 9.56606018 -1.11329651 8.63015747 C-1.11337204 7.78943695 -1.11344757 6.94871643 -1.11352539 6.08251953 C-1.115746 5.34083527 -1.11796661 4.599151 -1.12025452 3.83499146 C-1 2 -1 2 0 0 Z " fill="#62B932" transform="translate(224,387)"/>
<path d="M0 0 C2.74650807 2.50768128 3.87586795 4.3805097 4.16796875 8.19140625 C4.17441406 8.97386719 4.18085938 9.75632813 4.1875 10.5625 C4.20167969 11.34753906 4.21585937 12.13257813 4.23046875 12.94140625 C4 15 4 15 2 17 C-3.15130782 17.26193091 -7.92327799 16.84612033 -13 16 C-13 15.67 -13 15.34 -13 15 C-10.03 15 -7.06 15 -4 15 C-4.66 14.67 -5.32 14.34 -6 14 C-5.00102287 11.00306862 -4.34869747 9.97290587 -2 8 C-1.34 8 -0.68 8 0 8 C0 5.36 0 2.72 0 0 Z " fill="#0271BE" transform="translate(340,205)"/>
<path d="M0 0 C0.99 0.33 1.98 0.66 3 1 C2.67 3.97 2.34 6.94 2 10 C10.55389214 13.23972262 19.36695019 12.27108932 28.30078125 11.22265625 C33.85264786 10.76468751 39.43384433 10.92781642 45 11 C45 11.66 45 12.32 45 13 C35.41877917 13.71160261 25.85863767 14.12345309 16.25 14.1875 C14.84016846 14.20683594 14.84016846 14.20683594 13.40185547 14.2265625 C4.99601171 14.23872945 4.99601171 14.23872945 1 12 C-0.73149062 9.95369291 -1.0333555 8.62184182 -0.890625 5.9609375 C-0.65098017 3.96624671 -0.33028329 1.98169976 0 0 Z " fill="#79C184" transform="translate(163,281)"/>
<path d="M0 0 C3.18049935 2.70680795 5.41888899 5.11909115 7 9 C0.125 5.375 0.125 5.375 -1 2 C-10.46479523 -2.48332405 -21.87443141 -1.95267575 -32 0 C-23.47235466 -8.15687815 -9.19153209 -5.44952496 0 0 Z " fill="#F6EF69" transform="translate(327,235)"/>
<path d="M0 0 C1.05922499 3.17767497 0.9528773 4.79007793 0.5625 8.0625 C0.1459087 11.52358412 0.1459087 11.52358412 0 15 C0.77601563 14.83628906 1.55203125 14.67257813 2.3515625 14.50390625 C7.0492078 13.855088 11.64013661 13.89359613 16.375 13.9375 C17.76525391 13.94426758 17.76525391 13.94426758 19.18359375 13.95117188 C21.45579709 13.96288426 23.72786388 13.97928628 26 14 C26 14.33 26 14.66 26 15 C16.35778537 16.38630044 6.77010207 17.689843 -3 17 C-4 16 -4 16 -4.3125 12.4375 C-4.28625844 7.60030652 -2.43443013 4.08636487 0 0 Z " fill="#DD595E" transform="translate(158,211)"/>
<path d="M0 0 C2 1 2 1 3.125 4 C5.09171502 11.69378917 4.14251512 17.79840286 1 25 C-0.07174763 21.34811918 0.23588533 18.73567172 1 15 C0.01 15 -0.98 15 -2 15 C-2.93423645 11.98968256 -3.04449911 11.13349732 -2 8 C-1.67 8 -1.34 8 -1 8 C-0.67 5.36 -0.34 2.72 0 0 Z " fill="#55B738" transform="translate(283,360)"/>
<path d="M0 0 C0.33 0 0.66 0 1 0 C0 16 -1 32 -2 48 C-2.33 48 -2.66 48 -3 48 C-3.07547261 43.57498261 -3.12920892 39.15032916 -3.16479492 34.72485352 C-3.17966572 33.22674008 -3.19996866 31.7286684 -3.22631836 30.23071289 C-3.40604952 19.7322986 -2.48966491 10.2253092 0 0 Z " fill="#5CB435" transform="translate(226,298)"/>
<path d="M0 0 C2.00435164 3.42501846 2.53564839 6.57645928 3.0703125 10.48828125 C3.24433594 11.75220703 3.41835937 13.01613281 3.59765625 14.31835938 C3.68418457 14.97473389 3.77071289 15.6311084 3.85986328 16.30737305 C4.12289918 18.2966123 4.3992886 20.28407086 4.67578125 22.27148438 C5.48301288 28.24074983 6.09885503 33.96648423 6 40 C5.34 40 4.68 40 4 40 C3.93941406 39.22914062 3.87882813 38.45828125 3.81640625 37.6640625 C3.73261719 36.66117188 3.64882812 35.65828125 3.5625 34.625 C3.44068359 33.12839844 3.44068359 33.12839844 3.31640625 31.6015625 C3.15034374 29.02072387 3.15034374 29.02072387 2 27 C1.78143278 25.5641373 1.60984913 24.12092719 1.46484375 22.67578125 C1.37783203 21.81146484 1.29082031 20.94714844 1.20117188 20.05664062 C1.0706543 18.69829102 1.0706543 18.69829102 0.9375 17.3125 C0.84662109 16.42626953 0.75574219 15.54003906 0.66210938 14.62695312 C0.17945659 9.72421695 -0.10107732 4.92583497 0 0 Z " fill="#DC6167" transform="translate(215,73)"/>
<path d="M0 0 C0.33 0 0.66 0 1 0 C3.13405739 10.49244885 4.45986864 20.25269955 4 31 C4.99 31.33 5.98 31.66 7 32 C5.35 31.67 3.7 31.34 2 31 C0.78687503 20.64511186 -0.37534623 10.44713675 0 0 Z " fill="#C9E73B" transform="translate(225,420)"/>
<path d="M0 0 C0.66 0.33 1.32 0.66 2 1 C0.6875 3.5 0.6875 3.5 -1 6 C-1.99 6 -2.98 6 -4 6 C-4.103125 6.639375 -4.20625 7.27875 -4.3125 7.9375 C-4.539375 8.618125 -4.76625 9.29875 -5 10 C-5.99 10.33 -6.98 10.66 -8 11 C-7.938125 12.1446875 -7.938125 12.1446875 -7.875 13.3125 C-8 16 -8 16 -10 19 C-10.4603764 22.19806665 -10.4603764 22.19806665 -10.625 25.6875 C-10.69976562 26.86699219 -10.77453125 28.04648437 -10.8515625 29.26171875 C-10.92503906 30.61716797 -10.92503906 30.61716797 -11 32 C-11.33 32 -11.66 32 -12 32 C-12.63713839 21.38102684 -12.39544977 13.17578341 -5.109375 4.8359375 C-3.45761623 3.1506064 -1.77942014 1.54865961 0 0 Z " fill="#F8F178" transform="translate(293,235)"/>
<path d="M0 0 C0.33 0 0.66 0 1 0 C1.24942611 6.60979186 0.29784478 12.5107761 -1 19 C-7.6 19 -14.2 19 -21 19 C-21 18.67 -21 18.34 -21 18 C-19.85660156 17.95101562 -18.71320313 17.90203125 -17.53515625 17.8515625 C-16.04424527 17.77654811 -14.55336108 17.70099972 -13.0625 17.625 C-12.30775391 17.5940625 -11.55300781 17.563125 -10.77539062 17.53125 C-8.84492605 17.4273685 -6.92057919 17.22104386 -5 17 C-4.67 16.34 -4.34 15.68 -4 15 C-3.34 15 -2.68 15 -2 15 C-2.02320313 14.25234375 -2.04640625 13.5046875 -2.0703125 12.734375 C-2.09738281 11.25710937 -2.09738281 11.25710937 -2.125 9.75 C-2.14820313 8.77546875 -2.17140625 7.8009375 -2.1953125 6.796875 C-1.99862781 3.9803502 -1.44568916 2.39050964 0 0 Z " fill="#5E9ECD" transform="translate(441,212)"/>
<path d="M0 0 C0.33 0.66 0.66 1.32 1 2 C0.0625 4.625 0.0625 4.625 -1 7 C-1.66 7 -2.32 7 -3 7 C-3.90483637 12.36489595 -4.12303662 17.50317457 -4.0625 22.9375 C-4.05798828 23.71673828 -4.05347656 24.49597656 -4.04882812 25.29882812 C-4.03716908 27.19925268 -4.01923877 29.09963706 -4 31 C-7.19423365 26.20864952 -7.37311774 21.69004556 -7 16 C-5.68453458 9.90629991 -3.78322784 4.95733303 0 0 Z " fill="#438EBE" transform="translate(237,105)"/>
<path d="M0 0 C0.33 0 0.66 0 1 0 C0.67 4.95 0.34 9.9 0 15 C1.32 14.67 2.64 14.34 4 14 C4.33 15.32 4.66 16.64 5 18 C0.80410573 19.16552619 0.17908064 19.08954032 -4 17 C-2.68 11.39 -1.36 5.78 0 0 Z " fill="#4C93C3" transform="translate(283,192)"/>
<path d="M0 0 C0.33 0 0.66 0 1 0 C1.14567407 3.56206722 1.23419196 7.12336551 1.3125 10.6875 C1.3753418 12.19860352 1.3753418 12.19860352 1.43945312 13.74023438 C1.56311532 21.23416317 1.56311532 21.23416317 -1.34375 25.1875 C-4.2426464 27.16557048 -5.5705398 27.48992289 -9 27 C-9 26.34 -9 25.68 -9 25 C-8.21625 24.566875 -7.4325 24.13375 -6.625 23.6875 C-3.39331782 21.60999003 -3.11872041 20.63584134 -2 17 C-1.49917351 14.07398735 -1.17692244 11.13990554 -0.875 8.1875 C-0.74544922 7.00510742 -0.74544922 7.00510742 -0.61328125 5.79882812 C-0.40248936 3.86656916 -0.20037104 1.93336737 0 0 Z " fill="#4C94C1" transform="translate(299,86)"/>
<path d="M0 0 C1.27617187 0.18175781 1.27617187 0.18175781 2.578125 0.3671875 C13.36041495 1.85835526 24.16513439 2.96601283 35 4 C35 4.33 35 4.66 35 5 C31.37501666 5.02893932 27.75006287 5.04677792 24.125 5.0625 C22.57619141 5.07506836 22.57619141 5.07506836 20.99609375 5.08789062 C20.00996094 5.09111328 19.02382812 5.09433594 18.0078125 5.09765625 C16.64100342 5.10551147 16.64100342 5.10551147 15.24658203 5.11352539 C13 5 13 5 11 4 C9.46331135 3.77532169 7.92031946 3.59203195 6.375 3.4375 C5.55773437 3.35371094 4.74046875 3.26992188 3.8984375 3.18359375 C3.27195313 3.12300781 2.64546875 3.06242187 2 3 C2 2.34 2 1.68 2 1 C1.34 0.67 0.68 0.34 0 0 Z " fill="#F5F17A" transform="translate(226,289)"/>
<path d="M0 0 C0.89203125 0.10183594 1.7840625 0.20367187 2.703125 0.30859375 C3.37859375 0.39238281 4.0540625 0.47617188 4.75 0.5625 C4.75 0.8925 4.75 1.2225 4.75 1.5625 C3.85796875 1.68367188 2.9659375 1.80484375 2.046875 1.9296875 C0.87640625 2.09726563 -0.2940625 2.26484375 -1.5 2.4375 C-2.66015625 2.59992188 -3.8203125 2.76234375 -5.015625 2.9296875 C-7.87566136 3.48925983 -9.73963601 4.17634249 -12.25 5.5625 C-14.58333333 6.22916667 -16.91666667 6.89583333 -19.25 7.5625 C-20.60350594 8.18719505 -21.94934483 8.8341331 -23.25 9.5625 C-19.50943864 3.44158141 -13.75248079 2.00719364 -7.265625 -0.07421875 C-4.73201293 -0.53085813 -2.55245132 -0.30226397 0 0 Z " fill="#4896C2" transform="translate(261.25,95.4375)"/>
<path d="M0 0 C3.63002289 3.63002289 3.05557854 8.48844956 3.0625 13.375 C3.04658248 14.91672526 3.02741912 16.4584364 3 18 C2.34 18 1.68 18 1 18 C1 18.99 1 19.98 1 21 C0.34 21 -0.32 21 -1 21 C-1 22.32 -1 23.64 -1 25 C-1.99 24.67 -2.98 24.34 -4 24 C-3.2884375 23.1028125 -3.2884375 23.1028125 -2.5625 22.1875 C0.72717153 15.47657008 0.13876033 7.35429757 0 0 Z " fill="#DE4B52" transform="translate(164,184)"/>
<path d="M0 0 C4.3687083 3.90884426 6.5951213 7.0514594 7.203125 12.98095703 C7.30374489 15.15786834 7.32207429 17.32089223 7.3125 19.5 C7.32861328 20.23347656 7.34472656 20.96695312 7.36132812 21.72265625 C7.3656534 26.55831515 6.54590943 29.75457847 4 34 C3 31 3 31 3.9140625 28.7421875 C6.13519529 23.13342771 6.27103045 15.3759949 4.13671875 9.70703125 C3.15829124 8.09529429 2.08345136 6.54309739 1 5 C0.25 2.0625 0.25 2.0625 0 0 Z " fill="#7FC489" transform="translate(169,240)"/>
<path d="M0 0 C0.66 0.33 1.32 0.66 2 1 C3.70363822 1.22622081 5.41328701 1.40888473 7.125 1.5625 C8.03507812 1.64628906 8.94515625 1.73007813 9.8828125 1.81640625 C10.58148438 1.87699219 11.28015625 1.93757812 12 2 C12 2.33 12 2.66 12 3 C7.75202223 3.70040743 3.50138178 4.38308614 -0.75 5.0625 C-1.9565625 5.26166016 -3.163125 5.46082031 -4.40625 5.66601562 C-5.56640625 5.84970703 -6.7265625 6.03339844 -7.921875 6.22265625 C-8.99018555 6.39547119 -10.05849609 6.56828613 -11.15917969 6.74633789 C-13.79983578 6.98212697 -15.51449449 6.84161104 -18 6 C-14.535 5.505 -14.535 5.505 -11 5 C-11 4.34 -11 3.68 -11 3 C-7.7 3 -4.4 3 -1 3 C-0.67 2.01 -0.34 1.02 0 0 Z " fill="#DC575D" transform="translate(203,218)"/>
<path d="M0 0 C0.66 0.33 1.32 0.66 2 1 C-3.43509099 7.93442643 -6.23095055 9.84720029 -15 11 C-17.76775639 11.22416539 -20.21093138 11.19921919 -23 11 C-23.66 10.34 -24.32 9.68 -25 9 C-24.01 8.91363281 -23.02 8.82726562 -22 8.73828125 C-14.18433446 7.94494322 -8.43461002 6.79441531 -2 2 C-1.34 2 -0.68 2 0 2 C0 1.34 0 0.68 0 0 Z " fill="#DB5358" transform="translate(205,154)"/>
<path d="M0 0 C-5.27466142 4.04390709 -8.42856285 4.18243468 -14.9375 4.1875 C-16.1740332 4.20586914 -16.1740332 4.20586914 -17.43554688 4.22460938 C-18.62567383 4.22750977 -18.62567383 4.22750977 -19.83984375 4.23046875 C-20.56550537 4.23457764 -21.29116699 4.23868652 -22.03881836 4.24291992 C-24 4 -24 4 -27 2 C-25.73542969 1.93941406 -24.47085938 1.87882813 -23.16796875 1.81640625 C-21.50780129 1.73199096 -19.84764563 1.64734345 -18.1875 1.5625 C-17.35412109 1.52318359 -16.52074219 1.48386719 -15.66210938 1.44335938 C-14.85966797 1.40146484 -14.05722656 1.35957031 -13.23046875 1.31640625 C-12.12288208 1.26141968 -12.12288208 1.26141968 -10.99291992 1.20532227 C-7.154452 0.80986085 -3.97049695 -0.08823327 0 0 Z " fill="#4D93C1" transform="translate(275,149)"/>
<path d="M0 0 C0.66 0.33 1.32 0.66 2 1 C1.67 1.66 1.34 2.32 1 3 C0.34 3 -0.32 3 -1 3 C-0.67 3.99 -0.34 4.98 0 6 C-0.99 6.33 -1.98 6.66 -3 7 C-3 7.66 -3 8.32 -3 9 C-3.66 9 -4.32 9 -5 9 C-5 8.34 -5 7.68 -5 7 C-5.99 7.495 -5.99 7.495 -7 8 C-9.6723621 8.13415472 -12.32250488 8.04318541 -15 8 C-15 7.01 -15 6.02 -15 5 C-11.7 5 -8.4 5 -5 5 C-5 4.34 -5 3.68 -5 3 C-3.35 2.67 -1.7 2.34 0 2 C0 1.34 0 0.68 0 0 Z " fill="#52B83D" transform="translate(240,350)"/>
<path d="M0 0 C1.22589844 0.01353516 1.22589844 0.01353516 2.4765625 0.02734375 C3.41628906 0.04474609 3.41628906 0.04474609 4.375 0.0625 C5.87656874 3.06563748 5.46781204 5.85317522 5.4375 9.1875 C5.42847656 10.46882812 5.41945312 11.75015625 5.41015625 13.0703125 C5.39855469 14.05773437 5.38695312 15.04515625 5.375 16.0625 C4.715 16.0625 4.055 16.0625 3.375 16.0625 C3.375 11.1125 3.375 6.1625 3.375 1.0625 C0.735 1.3925 -1.905 1.7225 -4.625 2.0625 C-4.625 2.7225 -4.625 3.3825 -4.625 4.0625 C-6.605 4.3925 -8.585 4.7225 -10.625 5.0625 C-6.95332865 1.26843961 -5.29099668 -0.07558567 0 0 Z " fill="#D22A30" transform="translate(217.625,148.9375)"/>
<path d="M0 0 C-2.87913993 2.87913993 -6.18342198 3.72780733 -10 5 C-10 5.66 -10 6.32 -10 7 C-11.65 7.33 -13.3 7.66 -15 8 C-15 8.66 -15 9.32 -15 10 C-18.3 10 -21.6 10 -25 10 C-25 9.34 -25 8.68 -25 8 C-24.11248047 7.90912109 -24.11248047 7.90912109 -23.20703125 7.81640625 C-19.09021792 7.37987629 -15.04455467 6.91328654 -11 6 C-11.33 5.01 -11.66 4.02 -12 3 C-4.71428571 -0.42857143 -4.71428571 -0.42857143 0 0 Z " fill="#D6EE44" transform="translate(250,345)"/>
<path d="M0 0 C0.93817889 3.02528701 0.95019161 5.09161574 0.375 8.1875 C-0.22877575 12.6971831 0.63644405 15.87056404 2.30859375 20.0546875 C3 22 3 22 3 25 C2.01 24.67 1.02 24.34 0 24 C-2.07191164 19.43488802 -2.26976886 15.27942727 -2.25 10.3125 C-2.25515625 9.00925781 -2.2603125 7.70601562 -2.265625 6.36328125 C-2 3 -2 3 0 0 Z " fill="#4A91C2" transform="translate(337,180)"/>
<path d="M0 0 C3.72680737 0.06960082 7.34741812 0.22471356 11 1 C12.0409066 2.64142963 13.04504326 4.30712215 14 6 C17.03553166 6.46109342 19.95190896 6.28755576 23 6 C22.67 6.66 22.34 7.32 22 8 C13.8913496 8.7847081 9.58935769 6.59114092 3 2 C2.01 1.34 1.02 0.68 0 0 Z " fill="#DF4B53" transform="translate(196,108)"/>
<path d="M0 0 C15.74487472 0.96355353 15.74487472 0.96355353 23 2 C19.30147475 4.40726955 16.36794286 4.06887861 12.0625 3.6875 C10.85722656 3.58824219 9.65195312 3.48898438 8.41015625 3.38671875 C5.55234721 3.06263731 2.80512513 2.62276972 0 2 C0 1.34 0 0.68 0 0 Z " fill="#58A3CE" transform="translate(389,59)"/>
<path d="M0 0 C0.99 0.33 1.98 0.66 3 1 C2.67 3.97 2.34 6.94 2 10 C7.82748619 12.42811925 13.7757491 12.61727907 20 13 C20 13.33 20 13.66 20 14 C17.77110504 14.05428973 15.54182529 14.09292338 13.3125 14.125 C11.45044922 14.15980469 11.45044922 14.15980469 9.55078125 14.1953125 C6.16131095 14.00887299 3.99504688 13.53873968 1 12 C-0.73149062 9.95369291 -1.0333555 8.62184182 -0.890625 5.9609375 C-0.65098017 3.96624671 -0.33028329 1.98169976 0 0 Z " fill="#6CBD77" transform="translate(163,281)"/>
<path d="M0 0 C0.33 0 0.66 0 1 0 C1.27990605 7.89957062 0.51537186 15.2472493 -1 23 C-1.33 23 -1.66 23 -2 23 C-2.0580476 19.72924117 -2.09361165 16.45861476 -2.125 13.1875 C-2.14175781 12.25873047 -2.15851563 11.32996094 -2.17578125 10.37304688 C-2.18222656 9.48037109 -2.18867188 8.58769531 -2.1953125 7.66796875 C-2.20578613 6.84578857 -2.21625977 6.0236084 -2.22705078 5.17651367 C-2 3 -2 3 0 0 Z " fill="#4190C0" transform="translate(449,150)"/>
<path d="M0 0 C1.08087891 -0.03673828 1.08087891 -0.03673828 2.18359375 -0.07421875 C5.8536445 -0.09449527 7.73482968 0.06018968 10.6328125 2.3984375 C11.12523437 3.05070312 11.61765625 3.70296875 12.125 4.375 C11.48175781 4.22160156 10.83851563 4.06820313 10.17578125 3.91015625 C6.22732463 3.21753326 2.3118113 3.01699119 -1.6875 2.8125 C-2.47576172 2.76931641 -3.26402344 2.72613281 -4.07617188 2.68164062 C-6.00894215 2.57621679 -7.94195026 2.47516906 -9.875 2.375 C-6.95572255 -0.54427745 -3.90510187 0.00691168 0 0 Z " fill="#C5E942" transform="translate(259.875,342.625)"/>
<path d="M0 0 C5.95323426 -0.19599125 11.56529914 0.5614625 17.4375 1.5 C18.82098633 1.71462891 18.82098633 1.71462891 20.23242188 1.93359375 C22.48906007 2.28436653 24.74482853 2.63993865 27 3 C27 3.33 27 3.66 27 4 C23.06165122 3.9192614 19.12486673 3.80640623 15.1875 3.6875 C14.06794922 3.66494141 12.94839844 3.64238281 11.79492188 3.61914062 C10.18520508 3.5659668 10.18520508 3.5659668 8.54296875 3.51171875 C7.55321045 3.48553467 6.56345215 3.45935059 5.54370117 3.43237305 C2.67518042 2.94478784 1.76905088 2.25128105 0 0 Z " fill="#5B9CC6" transform="translate(307,48)"/>
<path d="M0 0 C7.10431476 -0.35260386 12.52463506 -0.06108161 19 3 C19.66 3.66 20.32 4.32 21 5 C13.89622327 3.98208077 6.92488567 2.90094901 0 1 C0 0.67 0 0.34 0 0 Z " fill="#5398C7" transform="translate(305,215)"/>
<path d="M0 0 C-0.66 0 -1.32 0 -2 0 C-2 0.66 -2 1.32 -2 2 C-0.35 2.33 1.3 2.66 3 3 C3 3.33 3 3.66 3 4 C-3.41481258 4.42765417 -8.88595404 2.85743168 -15 1 C-15 0.67 -15 0.34 -15 0 C-13.25093341 -0.19601608 -11.50068154 -0.38147403 -9.75 -0.5625 C-8.77546875 -0.66691406 -7.8009375 -0.77132812 -6.796875 -0.87890625 C-4.2368648 -0.98974468 -2.41851841 -0.77738092 0 0 Z " fill="#438CC2" transform="translate(302,211)"/>
<path d="M0 0 C0.66 0 1.32 0 2 0 C1.566875 1.2375 1.566875 1.2375 1.125 2.5 C-0.09898451 6.30795181 -1.0616882 10.11270827 -2 14 C-2.33 14 -2.66 14 -3 14 C-3.33 12.35 -3.66 10.7 -4 9 C-4.66 9 -5.32 9 -6 9 C-6.33 7.35 -6.66 5.7 -7 4 C-5.68 4.33 -4.36 4.66 -3 5 C-2.54625 4.175 -2.0925 3.35 -1.625 2.5 C-1.08875 1.675 -0.5525 0.85 0 0 Z " fill="#E15158" transform="translate(111,176)"/>
<path d="M0 0 C3.63 0 7.26 0 11 0 C11.33 2.31 11.66 4.62 12 7 C11.649375 6.34 11.29875 5.68 10.9375 5 C9.05325261 2.62807031 9.05325261 2.62807031 5.5 2.625 C1.89063517 2.73859137 1.89063517 2.73859137 -1 5 C-1.99 5 -2.98 5 -4 5 C-4 4.34 -4 3.68 -4 3 C-3.01 2.67 -2.02 2.34 -1 2 C-0.67 1.34 -0.34 0.68 0 0 Z " fill="#559BC6" transform="translate(279,143)"/>
<path d="M0 0 C2.55698285 3.78667689 2.03499684 7.4122334 1.625 11.75 C1.56828125 12.44738281 1.5115625 13.14476563 1.453125 13.86328125 C1.31232128 15.57639312 1.15754028 17.28834611 1 19 C-1.93447357 16.06552643 -1.46158423 12.81740544 -1.625 8.875 C-1.66367187 8.12089844 -1.70234375 7.36679688 -1.7421875 6.58984375 C-1.83651031 4.72696816 -1.91934662 2.86351745 -2 1 C-1.34 0.67 -0.68 0.34 0 0 Z " fill="#DB3E42" transform="translate(42,86)"/>
<path d="M0 0 C1.25425781 0.00902344 2.50851563 0.01804687 3.80078125 0.02734375 C4.75339844 0.03894531 5.70601562 0.05054687 6.6875 0.0625 C6.6875 0.3925 6.6875 0.7225 6.6875 1.0625 C6.00945312 1.08828125 5.33140625 1.1140625 4.6328125 1.140625 C-2.35962346 1.56675683 -7.97379431 3.10627066 -14.3125 6.0625 C-14.6425 5.0725 -14.9725 4.0825 -15.3125 3.0625 C-10.35992993 -0.23921338 -5.85598007 -0.05472879 0 0 Z " fill="#E85D65" transform="translate(182.3125,104.9375)"/>
<path d="M0 0 C0.66 1.32 1.32 2.64 2 4 C2.66 4 3.32 4 4 4 C5.28430862 5.47695491 6.56580708 6.95806138 7.78125 8.4921875 C9.06784671 10.13813095 9.06784671 10.13813095 11 12 C7.625 11.75 7.625 11.75 4 11 C2.6875 9 2.6875 9 2 7 C1.34 6.67 0.68 6.34 0 6 C0 4.02 0 2.04 0 0 Z " fill="#E25F65" transform="translate(159,147)"/>
<path d="M0 0 C0.66 0 1.32 0 2 0 C0.62859834 3.67694648 -1.03695801 6.95318589 -3.0625 10.3125 C-3.58972656 11.19550781 -4.11695313 12.07851563 -4.66015625 12.98828125 C-5.10230469 13.65214844 -5.54445313 14.31601562 -6 15 C-6.33 15 -6.66 15 -7 15 C-7 13.02 -7 11.04 -7 9 C-6.34 9 -5.68 9 -5 9 C-5 8.01 -5 7.02 -5 6 C-4.34 6 -3.68 6 -3 6 C-3 5.01 -3 4.02 -3 3 C-2.34 3 -1.68 3 -1 3 C-0.67 2.01 -0.34 1.02 0 0 Z " fill="#F8F26C" transform="translate(334,272)"/>
<path d="M0 0 C0.66 0 1.32 0 2 0 C2.125 2.375 2.125 2.375 2 5 C0 7 0 7 -3.6875 7.1875 C-7.52492934 7.09629967 -11.21644004 6.63059333 -15 6 C-15 5.67 -15 5.34 -15 5 C-10.38 5 -5.76 5 -1 5 C-0.67 3.35 -0.34 1.7 0 0 Z " fill="#5B9CC6" transform="translate(342,215)"/>
<path d="M0 0 C-4 3 -8 6 -12 9 C-11.67 7.35 -11.34 5.7 -11 4 C-10.01 4 -9.02 4 -8 4 C-8 2.68 -8 1.36 -8 0 C-4.71023192 -1.09658936 -3.28696233 -0.79953138 0 0 Z " fill="#4694C5" transform="translate(353,165)"/>
<path d="M0 0 C3.60156104 2.05803488 6.88992126 4.24535883 10 7 C10 7.66 10 8.32 10 9 C11.32 9.33 12.64 9.66 14 10 C10.16652105 10.21905594 7.33768239 9.98456791 4 8 C2.6875 4.875 2.6875 4.875 2 2 C1.34 2 0.68 2 0 2 C0 1.34 0 0.68 0 0 Z " fill="#599DC7" transform="translate(276,101)"/>
<path d="M0 0 C0 3 0 3 -0.9609375 5.29296875 C-2.14377881 8.37458163 -2.40827836 11.02555509 -2.625 14.3125 C-2.69976562 15.38113281 -2.77453125 16.44976562 -2.8515625 17.55078125 C-2.90054688 18.35902344 -2.94953125 19.16726562 -3 20 C-3.33 20 -3.66 20 -4 20 C-4.30436567 17.60425039 -4.56894313 15.21455175 -4.8125 12.8125 C-4.90208984 12.13896484 -4.99167969 11.46542969 -5.08398438 10.77148438 C-5.26953125 8.76953125 -5.26953125 8.76953125 -5 5 C-2.51171875 2.01171875 -2.51171875 2.01171875 0 0 Z " fill="#E7787B" transform="translate(160,119)"/>
<path d="M0 0 C3 1 3 1 4.75 3.4375 C5.36875 4.7059375 5.36875 4.7059375 6 6 C5 8 5 8 1 10 C0.67 6.7 0.34 3.4 0 0 Z " fill="#4EB63B" transform="translate(277,352)"/>
<path d="M0 0 C0.8125 1.625 0.8125 1.625 1 4 C-0.46818136 6.24609835 -2.15852858 8.02378677 -4 10 C-5.0625 8.1875 -5.0625 8.1875 -6 6 C-5.67 5.01 -5.34 4.02 -5 3 C-3.35 2.67 -1.7 2.34 0 2 C0 1.34 0 0.68 0 0 Z " fill="#5CBB68" transform="translate(171,271)"/>
<path d="M0 0 C6.27 0 12.54 0 19 0 C19.33 0.99 19.66 1.98 20 3 C16.62649982 4.12450006 15.39064231 3.58651301 12.1171875 2.546875 C8.15526122 1.52349921 4.07001812 1.31118851 0 1 C0 0.67 0 0.34 0 0 Z " fill="#DB5C5F" transform="translate(131,164)"/>
<path d="M0 0 C0.66 0 1.32 0 2 0 C1.34 6.27 0.68 12.54 0 19 C-0.33 19 -0.66 19 -1 19 C-1.02697137 16.39576408 -1.04682489 13.79180756 -1.0625 11.1875 C-1.07087891 10.44951172 -1.07925781 9.71152344 -1.08789062 8.95117188 C-1.10259828 5.70077932 -1.03531702 3.10595105 0 0 Z " fill="#5E9FCA" transform="translate(455,103)"/>
<path d="M0 0 C0.66 0.33 1.32 0.66 2 1 C1.2884375 1.61875 1.2884375 1.61875 0.5625 2.25 C-1.14345311 3.88384327 -1.14345311 3.88384327 -1.5 6.0625 C-2 8 -2 8 -5 10 C-5.72382467 12.05925139 -5.72382467 12.05925139 -6 14 C-6.66 14 -7.32 14 -8 14 C-6.58036591 8.32146365 -3.60636039 4.46825784 0 0 Z " fill="#76C488" transform="translate(128,236)"/>
<path d="M0 0 C2.7972908 2.06756277 3.02692273 3.14440371 3.6875 6.6875 C3.790625 7.780625 3.89375 8.87375 4 10 C2.68 10.33 1.36 10.66 0 11 C-1.16659166 7.50022502 -0.68403157 5.57216487 0 2 C0 1.34 0 0.68 0 0 Z " fill="#2E85BF" transform="translate(340,205)"/>
<path d="M0 0 C2 1 4 2 6 3 C6 3.66 6 4.32 6 5 C7.32 5.33 8.64 5.66 10 6 C10 7.32 10 8.64 10 10 C10.66 10 11.32 10 12 10 C12 11.65 12 13.3 12 15 C9.67527795 12.14693203 8.2491742 9.45925163 7 6 C6.34 6 5.68 6 5 6 C5 5.34 5 4.68 5 4 C4.360625 3.71125 3.72125 3.4225 3.0625 3.125 C1 2 1 2 0 0 Z " fill="#E2646C" transform="translate(151,168)"/>
<path d="M0 0 C0.99 0 1.98 0 3 0 C3 2.64 3 5.28 3 8 C-0.13498292 9.85776765 -2.37471432 10.20140476 -6 10 C-4 8.66666667 -2 7.33333333 0 6 C0.2502157 2.91634129 0.2502157 2.91634129 0 0 Z " fill="#62B66F" transform="translate(129,284)"/>
<path d="M0 0 C0.66 0 1.32 0 2 0 C3.03590199 5.05002222 3.10251672 9.87416389 3 15 C-0.25195722 10.12206417 -0.11325659 5.77608621 0 0 Z " fill="#589AC5" transform="translate(230,121)"/>
<path d="M0 0 C6.49678438 -0.29530838 12.6221448 0.82706111 19 2 C19 2.33 19 2.66 19 3 C16.77110504 3.05428973 14.54182529 3.09292338 12.3125 3.125 C10.45044922 3.15980469 10.45044922 3.15980469 8.55078125 3.1953125 C5.18762143 3.01032021 3.0014413 2.45767895 0 1 C0 0.67 0 0.34 0 0 Z " fill="#5BA0CB" transform="translate(338,52)"/>
<path d="M0 0 C0.99 0.99 1.98 1.98 3 3 C2.67 3.99 2.34 4.98 2 6 C-0.97 5.67 -3.94 5.34 -7 5 C-2.25 1.125 -2.25 1.125 0 0 Z " fill="#D8E830" transform="translate(277,393)"/>
<path d="M0 0 C3.26566506 4.89849759 3.09311493 8.31998909 3 14 C2.34 13.67 1.68 13.34 1 13 C-0.29930238 8.71230214 -0.07516774 4.43489655 0 0 Z " fill="#DB585F" transform="translate(210,46)"/>
<path d="M0 0 C2.97 1.65 5.94 3.3 9 5 C8.67 5.66 8.34 6.32 8 7 C4.84859577 6.65930765 3.39218439 6.41923159 1.1875 4.0625 C0 2 0 2 0 0 Z " fill="#5EB666" transform="translate(159,232)"/>
<path d="M0 0 C0.90105469 0.01804688 1.80210937 0.03609375 2.73046875 0.0546875 C3.41753906 0.07789063 4.10460937 0.10109375 4.8125 0.125 C3.63671875 1.64453125 3.63671875 1.64453125 1.8125 3.125 C-0.66796875 3.19921875 -0.66796875 3.19921875 -3.375 2.8125 C-4.72658203 2.63267578 -4.72658203 2.63267578 -6.10546875 2.44921875 C-7.13607422 2.28873047 -7.13607422 2.28873047 -8.1875 2.125 C-4.87379 -0.08414 -3.8428979 -0.09981553 0 0 Z " fill="#DE2226" transform="translate(176.1875,48.875)"/>
<path d="M0 0 C3.96 0 7.92 0 12 0 C12.66 1.32 13.32 2.64 14 4 C12.35 4 10.7 4 9 4 C9 3.01 9 2.02 9 1 C6.03 1 3.06 1 0 1 C0 0.67 0 0.34 0 0 Z " fill="#43B152" transform="translate(208,292)"/>
<path d="M0 0 C0.93423645 3.01031744 1.04449911 3.86650268 0 7 C-1.65 6.67 -3.3 6.34 -5 6 C-3.63016497 2.83884224 -3.0109362 2.0072908 0 0 Z " fill="#3589C0" transform="translate(382,209)"/>
<path d="M0 0 C1.22589844 0.01353516 1.22589844 0.01353516 2.4765625 0.02734375 C3.41628906 0.04474609 3.41628906 0.04474609 4.375 0.0625 C4.375 0.3925 4.375 0.7225 4.375 1.0625 C-0.08 1.5575 -0.08 1.5575 -4.625 2.0625 C-4.625 2.7225 -4.625 3.3825 -4.625 4.0625 C-6.605 4.3925 -8.585 4.7225 -10.625 5.0625 C-6.95332865 1.26843961 -5.29099668 -0.07558567 0 0 Z " fill="#DA595B" transform="translate(217.625,148.9375)"/>
<path d="M0 0 C0.33 0 0.66 0 1 0 C1.02698189 1.62490954 1.04638757 3.24994633 1.0625 4.875 C1.07410156 5.77992188 1.08570313 6.68484375 1.09765625 7.6171875 C1 10 1 10 0 12 C-0.66 12 -1.32 12 -2 12 C-1.85904936 10.3745692 -1.71207913 8.74965949 -1.5625 7.125 C-1.48128906 6.22007812 -1.40007812 5.31515625 -1.31640625 4.3828125 C-1 2 -1 2 0 0 Z " fill="#3686BB" transform="translate(292,150)"/>
<path d="M0 0 C4.54805635 -0.17835515 7.8794254 0.00214565 12 2 C12 2.33 12 2.66 12 3 C7.83861737 3.08159574 4.0527516 2.98248524 0 2 C0 1.34 0 0.68 0 0 Z " fill="#3F8CBE" transform="translate(389,59)"/>
<path d="M0 0 C2.31 0 4.62 0 7 0 C7.33 1.65 7.66 3.3 8 5 C5 5 5 5 2.3125 2.5 C1.549375 1.675 0.78625 0.85 0 0 Z " fill="#378BC3" transform="translate(377,166)"/>
<path d="M0 0 C3.68754757 0.49831724 5.60490662 1.10067643 8 4 C7.67 4.66 7.34 5.32 7 6 C5.83054208 5.19152271 4.66449539 4.37810888 3.5 3.5625 C2.8503125 3.11003906 2.200625 2.65757812 1.53125 2.19140625 C1.0259375 1.79824219 0.520625 1.40507812 0 1 C0 0.67 0 0.34 0 0 Z " fill="#D7EC3E" transform="translate(272,347)"/>
<path d="M0 0 C0.33 1.32 0.66 2.64 1 4 C0.360625 4.268125 -0.27875 4.53625 -0.9375 4.8125 C-3.33131686 5.88667752 -3.33131686 5.88667752 -4 9 C-4.66 8.67 -5.32 8.34 -6 8 C-5.34 7.01 -4.68 6.02 -4 5 C-3.34 5 -2.68 5 -2 5 C-1.855625 4.360625 -1.71125 3.72125 -1.5625 3.0625 C-1 1 -1 1 0 0 Z " fill="#D1E633" transform="translate(284,384)"/>
<path d="M0 0 C2.97 0.495 2.97 0.495 6 1 C5.67 2.98 5.34 4.96 5 7 C2.65941363 4.87219421 1.29299694 2.88437779 0 0 Z " fill="#DCEC34" transform="translate(280,354)"/>
<path d="M0 0 C0.33 0 0.66 0 1 0 C1.33 2.97 1.66 5.94 2 9 C0.02 9.33 -1.96 9.66 -4 10 C-3.34 9.67 -2.68 9.34 -2 9 C-2 8.34 -2 7.68 -2 7 C-1.34 7 -0.68 7 0 7 C0 4.69 0 2.38 0 0 Z " fill="#DB505A" transform="translate(221,210)"/>
<path d="M0 0 C0.33 0 0.66 0 1 0 C1.2493357 1.60115576 1.47378648 3.20620159 1.6875 4.8125 C1.87892578 6.15248047 1.87892578 6.15248047 2.07421875 7.51953125 C2 10 2 10 -1 13 C-0.67 8.71 -0.34 4.42 0 0 Z " fill="#E6EF37" transform="translate(287,368)"/>
<path d="M0 0 C0.99 0.33 1.98 0.66 3 1 C3.33 3.64 3.66 6.28 4 9 C1.47740939 7.02579865 1.0070192 6.03254358 0.3125 2.8125 C0.209375 1.884375 0.10625 0.95625 0 0 Z " fill="#F7F075" transform="translate(282,267)"/>
<path d="M0 0 C0.66 0 1.32 0 2 0 C2.66 2.64 3.32 5.28 4 8 C3.34 8 2.68 8 2 8 C2 7.01 2 6.02 2 5 C1.01 4.67 0.02 4.34 -1 4 C-0.67 2.68 -0.34 1.36 0 0 Z " fill="#DC434C" transform="translate(155,139)"/>
<path d="M0 0 C0.66 0.33 1.32 0.66 2 1 C3.70363822 1.22622081 5.41328701 1.40888473 7.125 1.5625 C8.03507813 1.64628906 8.94515625 1.73007813 9.8828125 1.81640625 C10.58148438 1.87699219 11.28015625 1.93757812 12 2 C12 2.33 12 2.66 12 3 C7.71 3 3.42 3 -1 3 C-0.67 2.01 -0.34 1.02 0 0 Z " fill="#DC4C4E" transform="translate(203,218)"/>
</svg>
